<svg id="Capa_1" data-name="Capa 1" xmlns="http://www.w3.org/2000/svg" viewBox="0 0 127.09 85.66"><defs><style>.cls-1,.cls-2{fill:none;}.cls-1,.cls-2,.cls-3{stroke:#000;stroke-miterlimit:10;}.cls-2{stroke-dasharray:2;}.cls-3{fill:#3b6aff;}.cls-4{font-size:5px;}.cls-4,.cls-8{font-family:MyriadPro-Regular, Myriad Pro;}.cls-5{letter-spacing:-0.01em;}.cls-6{letter-spacing:0em;}.cls-7{letter-spacing:0em;}.cls-8{font-size:6px;}.cls-9{letter-spacing:-0.01em;}.cls-10{letter-spacing:-0.01em;}.cls-11{letter-spacing:0em;}.cls-12{letter-spacing:0.01em;}.cls-13{letter-spacing:-0.01em;}.cls-14{letter-spacing:0.02em;}.cls-15{letter-spacing:-0.01em;}.cls-16{letter-spacing:0em;}</style></defs><title>boxplot</title><line class="cls-1" x1="0.09" y1="82.87" x2="45.27" y2="83.14"/><line class="cls-1" x1="0.09" y1="2.87" x2="45.27" y2="3.14"/><line class="cls-2" x1="22.68" y1="3" x2="22.68" y2="83"/><rect class="cls-3" x="0.5" y="13.62" width="44.71" height="51.92"/><line class="cls-1" x1="0.5" y1="39.58" x2="45.21" y2="39.58"/><text class="cls-4" transform="translate(77.7 5.02)">Lími<tspan class="cls-5" x="8.87" y="0">t</tspan><tspan class="cls-6" x="10.49" y="0">e supe</tspan><tspan class="cls-7" x="24.14" y="0">r</tspan><tspan class="cls-6" x="25.8" y="0">ior máximo</tspan></text><text class="cls-8" transform="translate(47.67 5.02)">190</text><text class="cls-4" transform="translate(76.52 84.33)">Lími<tspan class="cls-9" x="8.87" y="0">t</tspan><tspan x="10.5" y="0">e in</tspan><tspan class="cls-10" x="18" y="0">f</tspan><tspan x="19.4" y="0">e</tspan><tspan class="cls-11" x="21.9" y="0">r</tspan><tspan x="23.56" y="0">ior mínimo</tspan></text><text class="cls-8" transform="translate(47.76 84.16)">150</text><text class="cls-8" transform="translate(47.76 40.61)">170</text><text class="cls-8" transform="translate(47.76 16.89)">180</text><text class="cls-8" transform="translate(47.76 65.54)">160</text><text class="cls-4" transform="translate(77.7 40.61)"><tspan class="cls-12">M</tspan><tspan x="4.05" y="0">edia</tspan></text><text class="cls-4" transform="translate(77.7 15.86)"><tspan class="cls-13">C</tspan><tspan x="2.84" y="0">ua</tspan><tspan class="cls-14" x="8" y="0">r</tspan><tspan x="9.76" y="0">til supe</tspan><tspan class="cls-11" x="24.91" y="0">r</tspan><tspan x="26.56" y="0">ior</tspan></text><text class="cls-4" transform="translate(77.7 64.53)"><tspan class="cls-13">C</tspan><tspan x="2.84" y="0">ua</tspan><tspan class="cls-14" x="8" y="0">r</tspan><tspan x="9.76" y="0">til in</tspan><tspan class="cls-15" x="18.77" y="0">f</tspan><tspan x="20.17" y="0">e</tspan><tspan class="cls-16" x="22.67" y="0">r</tspan><tspan x="24.32" y="0">ior</tspan></text></svg>